<svg width="42" height="46" viewBox="0 0 42 46" fill="none" xmlns="http://www.w3.org/2000/svg">
<path d="M20.625 1.31543C21.5042 1.31545 22.2541 1.5684 22.9219 2.07715L38.3984 13.6846L38.4043 13.6895L38.4092 13.6934C38.8816 14.0398 39.2525 14.4781 39.5273 15.0264C39.8014 15.5732 39.9358 16.1442 39.9346 16.7549V39.9609C39.9345 41.0269 39.5699 41.9077 38.8037 42.6738C38.0376 43.4399 37.158 43.803 36.0947 43.8018H25.7812C25.3827 43.8018 25.1113 43.6814 24.877 43.4463C24.6696 43.2383 24.5515 43.0022 24.5244 42.6797L24.5176 42.5361V28.333H16.7314V42.5391C16.7314 42.9375 16.6107 43.2106 16.374 43.4473C16.1376 43.6836 15.8665 43.8027 15.4717 43.8018H5.15625C4.08949 43.8018 3.20934 43.4379 2.44531 42.6738C1.72906 41.9575 1.36329 41.1381 1.31934 40.1572L1.31543 39.959V16.7578C1.31543 16.1461 1.4501 15.5741 1.72461 15.0264C1.99985 14.4772 2.37069 14.0388 2.8418 13.6924L2.85156 13.6846L18.3281 2.07715C18.9959 1.56841 19.7458 1.31543 20.625 1.31543ZM37.4082 16.1006L36.8828 15.7061L20.625 3.5127L4.36719 15.7061L3.84082 16.1006V41.2754H14.2051V27.0703C14.2051 26.6718 14.3263 26.4004 14.5615 26.166C14.7993 25.9291 15.0734 25.8076 15.4717 25.8066H25.7812C26.1797 25.8067 26.4528 25.9275 26.6895 26.1641C26.926 26.4006 27.0449 26.6724 27.0439 27.0674V41.2754H37.4082V16.1006Z" fill="white" stroke="#30405E" stroke-width="2.62998"/>
</svg>
