<svg width="50" height="50" viewBox="0 0 50 50" fill="none" xmlns="http://www.w3.org/2000/svg">
<path d="M38.8229 42.7783L34.338 22.3472L43.0587 13.6265C46.7961 9.88914 48.0419 4.90593 46.7961 2.41432C44.3045 1.16852 39.3212 2.41432 35.5838 6.15173L26.8632 14.8724L6.43204 10.3875C5.18623 10.1383 4.18959 10.6366 3.69127 11.6333L2.94379 12.8791C2.44547 14.1249 2.69463 15.3707 3.69127 16.1182L16.8968 24.8388L11.9136 32.3136H4.43875L1.94714 34.8052L9.42196 39.7884L14.4052 47.2632L16.8968 44.7716V37.2968L24.3716 32.3136L33.0922 45.5191C33.8397 46.5158 35.0855 46.7649 36.3313 46.2666L37.5771 45.7683C38.5738 45.0208 39.0721 44.0241 38.8229 42.7783Z" stroke="#30405E" stroke-width="3.89435" stroke-linecap="round" stroke-linejoin="round"/>
</svg>
