<svg width="46" height="46" viewBox="0 0 46 46" fill="none" xmlns="http://www.w3.org/2000/svg">
<path d="M22.6582 31.9268C21.2925 31.9268 19.9823 32.4698 19.0166 33.4355C18.0509 34.4013 17.5088 35.7114 17.5088 37.0771V42.2266H27.8076V37.0771C27.8076 35.7115 27.2654 34.4013 26.2998 33.4355C25.3341 32.4699 24.0239 31.9268 22.6582 31.9268ZM3.08984 18.5381C3.08984 19.3575 3.41568 20.1442 3.99512 20.7236C4.57451 21.3028 5.36045 21.6279 6.17969 21.6279C6.99895 21.6279 7.78489 21.3029 8.36426 20.7236C8.94369 20.1442 9.26953 19.3575 9.26953 18.5381V11.3291H3.08984V18.5381ZM11.3291 18.5381C11.3291 19.3575 11.6549 20.1442 12.2344 20.7236C12.8138 21.3028 13.5997 21.6279 14.4189 21.6279C15.2382 21.6279 16.0241 21.3029 16.6035 20.7236C17.183 20.1442 17.5088 19.3575 17.5088 18.5381V11.3291H11.3291V18.5381ZM19.5684 18.5381C19.5684 19.3575 19.8942 20.1442 20.4736 20.7236C21.053 21.3028 21.8389 21.6279 22.6582 21.6279C23.4775 21.6279 24.2634 21.3029 24.8428 20.7236C25.4222 20.1442 25.748 19.3575 25.748 18.5381V11.3291H19.5684V18.5381ZM27.8076 18.5381C27.8076 19.3575 28.1335 20.1442 28.7129 20.7236C29.2923 21.3028 30.0782 21.6279 30.8975 21.6279C31.7167 21.6279 32.5026 21.3029 33.082 20.7236C33.6615 20.1442 33.9873 19.3575 33.9873 18.5381V11.3291H27.8076V18.5381ZM36.0469 18.5381C36.0469 19.3575 36.3727 20.1442 36.9521 20.7236C37.5316 21.3028 38.3175 21.6279 39.1367 21.6279C39.956 21.6279 40.7419 21.3029 41.3213 20.7236C41.9007 20.1442 42.2266 19.3575 42.2266 18.5381V11.3291H36.0469V18.5381ZM6.79785 1.03027H39.1367C39.4098 1.0303 39.6721 1.13891 39.8652 1.33203C40.0581 1.52508 40.1669 1.7867 40.167 2.05957C40.167 2.33264 40.0583 2.59496 39.8652 2.78809C39.6721 2.98121 39.4098 3.08982 39.1367 3.08984H6.79785C6.52475 3.08984 6.26247 2.98117 6.06934 2.78809C5.87619 2.59494 5.76758 2.33272 5.76758 2.05957C5.76764 1.78658 5.87634 1.5251 6.06934 1.33203C6.26248 1.13889 6.5247 1.03027 6.79785 1.03027ZM5.14941 23.6191L4.46289 23.376C3.46132 23.0219 2.59408 22.3665 1.97949 21.5C1.40329 20.6876 1.07531 19.7267 1.03418 18.7344L1.03027 18.5352V10.2988C1.03035 10.0258 1.13895 9.76437 1.33203 9.57129C1.52512 9.37821 1.78652 9.2696 2.05957 9.26953H43.2559C43.529 9.26953 43.7912 9.37814 43.9844 9.57129C44.1774 9.76435 44.2861 10.0258 44.2861 10.2988V18.5381C44.2826 19.5996 43.951 20.6341 43.3369 21.5C42.7224 22.3665 41.855 23.0218 40.8535 23.376L40.167 23.6191V43.2559C40.167 43.5289 40.0582 43.7913 39.8652 43.9844C39.6721 44.1775 39.4098 44.2861 39.1367 44.2861H6.17969C5.90654 44.2861 5.64432 44.1775 5.45117 43.9844C5.25809 43.7912 5.14941 43.529 5.14941 43.2559V23.6191ZM38.1064 23.6318L37.4365 23.3818C36.7985 23.1437 36.2096 22.7907 35.6992 22.3398L35.0127 21.7334L34.3301 22.3438C33.386 23.188 32.164 23.6552 30.8975 23.6553C29.6308 23.6553 28.408 23.1882 27.4639 22.3438L26.7773 21.7295L26.0908 22.3438C25.1468 23.188 23.9247 23.6552 22.6582 23.6553C21.3915 23.6553 20.1687 23.1882 19.2246 22.3438L18.5381 21.7295L17.8516 22.3438C16.9075 23.188 15.6855 23.6552 14.4189 23.6553C13.1523 23.6553 11.9295 23.1882 10.9854 22.3438L10.3037 21.7334L9.61719 22.3398C9.10668 22.7909 8.51713 23.1437 7.87891 23.3818L7.20898 23.6318V42.2266H15.4482V37.0771C15.4482 35.1651 16.2085 33.3305 17.5605 31.9785C18.9125 30.6267 20.7463 29.8672 22.6582 29.8672C24.5701 29.8672 26.4039 30.6267 27.7559 31.9785C29.1079 33.3305 29.8672 35.1651 29.8672 37.0771V42.2266H38.1064V23.6318Z" fill="white" stroke="#192233" stroke-width="2.05982"/>
</svg>
