<svg width="47" height="45" viewBox="0 0 47 45" fill="none" xmlns="http://www.w3.org/2000/svg">
<path d="M4.05186 19.2857C4.05186 18.6464 4.30798 18.0332 4.76389 17.5811C5.2198 17.129 5.83815 16.875 6.4829 16.875H8.10359C8.74835 16.875 9.36669 17.129 9.8226 17.5811C10.2785 18.0332 10.5346 18.6464 10.5346 19.2857C10.5346 19.9251 10.2785 20.5382 9.8226 20.9903C9.36669 21.4424 8.74835 21.6964 8.10359 21.6964H6.4829C5.83815 21.6964 5.2198 21.4424 4.76389 20.9903C4.30798 20.5382 4.05186 19.9251 4.05186 19.2857ZM23.5002 6.42857C24.1449 6.42857 24.7633 6.17459 25.2192 5.72249C25.6751 5.27039 25.9312 4.65722 25.9312 4.01786V2.41071C25.9312 1.77135 25.6751 1.15818 25.2192 0.706082C24.7633 0.253985 24.1449 0 23.5002 0C22.8554 0 22.2371 0.253985 21.7812 0.706082C21.3253 1.15818 21.0691 1.77135 21.0691 2.41071V4.01786C21.0691 4.65722 21.3253 5.27039 21.7812 5.72249C22.2371 6.17459 22.8554 6.42857 23.5002 6.42857ZM10.8932 10.1933C11.1193 10.4175 11.3878 10.5954 11.6833 10.7168C11.9787 10.8381 12.2954 10.9006 12.6152 10.9006C12.935 10.9006 13.2517 10.8381 13.5471 10.7168C13.8426 10.5954 14.1111 10.4175 14.3372 10.1933C14.5633 9.96906 14.7427 9.70284 14.8651 9.40985C14.9875 9.11687 15.0505 8.80284 15.0505 8.48571C15.0505 8.16859 14.9875 7.85456 14.8651 7.56157C14.7427 7.26858 14.5633 7.00237 14.3372 6.77813L13.1905 5.64308C12.9644 5.41884 12.696 5.24096 12.4005 5.1196C12.105 4.99824 11.7884 4.93577 11.4686 4.93577C11.1488 4.93577 10.8321 4.99824 10.5366 5.1196C10.2412 5.24096 9.97271 5.41884 9.74657 5.64308C9.28987 6.09596 9.0333 6.7102 9.0333 7.35067C9.0333 7.99114 9.28987 8.60538 9.74657 9.05826L10.8932 10.1933ZM34.3933 10.9004C34.7128 10.9004 35.0291 10.838 35.3242 10.7166C35.6194 10.5953 35.8875 10.4175 36.1132 10.1933L37.2579 9.05826C37.484 8.83401 37.6634 8.5678 37.7858 8.27481C37.9081 7.98182 37.9711 7.6678 37.9711 7.35067C37.9711 7.03354 37.9081 6.71952 37.7858 6.42653C37.6634 6.13354 37.484 5.86732 37.2579 5.64308C37.0317 5.41884 36.7633 5.24096 36.4678 5.1196C36.1723 4.99824 35.8557 4.93577 35.5359 4.93577C34.89 4.93577 34.2706 5.1902 33.8139 5.64308L32.6672 6.77813C32.3269 7.11528 32.095 7.54499 32.0011 8.01288C31.9071 8.48076 31.9553 8.96577 32.1394 9.4065C32.3236 9.84724 32.6355 10.2239 33.0356 10.4887C33.4357 10.7536 33.9061 10.8948 34.3872 10.8944L34.3933 10.9004ZM36.4657 19.2857C36.4657 19.9251 36.7219 20.5382 37.1778 20.9903C37.6337 21.4424 38.252 21.6964 38.8968 21.6964H40.5175C41.1622 21.6964 41.7806 21.4424 42.2365 20.9903C42.6924 20.5382 42.9485 19.9251 42.9485 19.2857C42.9485 18.6464 42.6924 18.0332 42.2365 17.5811C41.7806 17.129 41.1622 16.875 40.5175 16.875H38.8968C38.252 16.875 37.6337 17.129 37.1778 17.5811C36.7219 18.0332 36.4657 18.6464 36.4657 19.2857ZM15.3967 21.6964C16.0415 21.6964 16.6598 21.4424 17.1157 20.9903C17.5716 20.5382 17.8278 19.9251 17.8278 19.2857C17.8278 17.7939 18.4254 16.3631 19.4892 15.3082C20.553 14.2533 21.9958 13.6607 23.5002 13.6607C25.0046 13.6607 26.4474 14.2533 27.5112 15.3082C28.575 16.3631 29.1726 17.7939 29.1726 19.2857C29.1726 19.9251 29.4287 20.5382 29.8847 20.9903C30.3406 21.4424 30.9589 21.6964 31.6037 21.6964C32.2484 21.6964 32.8668 21.4424 33.3227 20.9903C33.7786 20.5382 34.0347 19.9251 34.0347 19.2857C34.0347 16.5151 32.9248 13.8581 30.9492 11.899C28.9736 9.93989 26.2941 8.83929 23.5002 8.83929C20.7063 8.83929 18.0268 9.93989 16.0512 11.899C14.0756 13.8581 12.9657 16.5151 12.9657 19.2857C12.9657 19.9251 13.2218 20.5382 13.6777 20.9903C14.1336 21.4424 14.752 21.6964 15.3967 21.6964ZM46.668 43.8047C46.4539 44.1683 46.1475 44.47 45.7793 44.6798C45.4111 44.8895 44.9939 44.9999 44.5692 45H2.43116C2.00639 45 1.58903 44.8897 1.22065 44.68C0.852276 44.4702 0.545741 44.1685 0.331585 43.8047C0.117428 43.4409 0.00312555 43.0279 6.31955e-05 42.6067C-0.00299916 42.1855 0.105286 41.7708 0.314131 41.404L9.02536 26.1362C9.23713 25.7642 9.54474 25.4548 9.91672 25.2395C10.2887 25.0241 10.7117 24.9107 11.1424 24.9107H35.858C36.2887 24.9107 36.7117 25.0241 37.0837 25.2395C37.4556 25.4548 37.7633 25.7642 37.975 26.1362L46.6863 41.404C46.895 41.7709 47.0031 42.1856 46.9999 42.6068C46.9967 43.028 46.8823 43.441 46.668 43.8047ZM34.4399 29.7321H25.9312V32.1429H35.8215L34.4399 29.7321ZM12.5605 29.7321L11.187 32.1429H21.0691V29.7321H12.5605ZM6.59837 40.1786H21.0691V36.9643H8.42976L6.59837 40.1786ZM40.402 40.1786L38.5787 36.9643H25.9312V40.1786H40.402Z" fill="#30405E"/>
</svg>
