<svg width="48" height="48" viewBox="0 0 48 48" fill="none" xmlns="http://www.w3.org/2000/svg">
<path d="M46.2805 46.2805H1.67279" stroke="#30405E" stroke-width="3.34558" stroke-linecap="round"/>
<path d="M35.1285 46.2805V10.5944C35.1285 6.38788 35.1285 4.28686 33.8214 2.97986C32.5144 1.67285 30.4134 1.67285 26.2069 1.67285H21.7461C17.5396 1.67285 15.4386 1.67285 14.1316 2.97986C12.8246 4.28686 12.8246 6.38788 12.8246 10.5944V46.2805M44.05 46.2805V16.1703C44.05 13.0389 44.05 11.4709 43.2984 10.3468C42.9728 9.85954 42.5545 9.44118 42.0672 9.11564C40.9431 8.364 39.3751 8.364 36.2436 8.364M3.90308 46.2805V16.1703C3.90308 13.0389 3.90308 11.4709 4.65472 10.3468C4.98025 9.85954 5.39861 9.44118 5.88589 9.11564C7.01 8.364 8.57796 8.364 11.7094 8.364" stroke="#30405E" stroke-width="3.34558"/>
<path d="M23.9765 46.2788V39.5877M19.5157 23.975H28.4373M9.479 21.7446H12.8246M9.479 28.4358H12.8246M35.1284 21.7446H38.474M35.1284 28.4358H38.474M9.479 15.0535H12.8246M35.1284 15.0535H38.474M19.5157 30.6662H28.4373" stroke="#30405E" stroke-width="3.34558" stroke-linecap="round"/>
</svg>
