<svg width="46" height="42" viewBox="0 0 46 42" fill="none" xmlns="http://www.w3.org/2000/svg">
<path d="M45.3345 41.0677H0V36.5046H2.26672V2.28154C2.26672 1.67644 2.50554 1.09612 2.93063 0.668247C3.35573 0.240376 3.93228 0 4.53345 0H36.2676C36.8688 0 37.4453 0.240376 37.8704 0.668247C38.2955 1.09612 38.5343 1.67644 38.5343 2.28154V13.6892H43.0678V36.5046H45.3345V41.0677ZM34.0009 36.5046H38.5343V18.2523H24.934V36.5046H29.4674V22.8154H34.0009V36.5046ZM34.0009 13.6892V4.56308H6.80017V36.5046H20.4005V13.6892H34.0009ZM11.3336 18.2523H15.8671V22.8154H11.3336V18.2523ZM11.3336 27.3785H15.8671V31.9416H11.3336V27.3785ZM11.3336 9.12616H15.8671V13.6892H11.3336V9.12616Z" fill="#192233"/>
</svg>
