<svg width="44" height="47" viewBox="0 0 44 47" fill="none" xmlns="http://www.w3.org/2000/svg">
<path d="M21.7328 13.6773C22.4477 13.6773 23.1333 13.3933 23.6388 12.8878C24.1444 12.3823 24.4284 11.6966 24.4284 10.9817C24.4284 10.2668 24.1444 9.58119 23.6388 9.07567C23.1333 8.57016 22.4477 8.28616 21.7328 8.28616C21.0179 8.28616 20.3323 8.57016 19.8267 9.07567C19.3212 9.58119 19.0372 10.2668 19.0372 10.9817C19.0372 11.6966 19.3212 12.3823 19.8267 12.8878C20.3323 13.3933 21.0179 13.6773 21.7328 13.6773ZM24.378 0.936235C23.6295 0.330489 22.6957 0 21.7328 0C20.7698 0 19.8361 0.330489 19.0875 0.936235L1.10987 15.5462C-1.07534 17.3289 0.182594 20.8655 3.00036 20.8655H3.76231V35.9607C1.62742 37.0497 0.168217 39.2673 0.168217 41.8298V44.2271C0.168217 44.7037 0.357549 45.1608 0.694561 45.4978C1.03157 45.8348 1.48866 46.0242 1.96527 46.0242H41.5003C41.9769 46.0242 42.434 45.8348 42.771 45.4978C43.108 45.1608 43.2974 44.7037 43.2974 44.2271V41.8298C43.2974 39.2709 41.8382 37.0497 39.7033 35.9607V20.8655H40.4652C43.283 20.8655 44.5409 17.3253 42.3521 15.5462L24.378 0.936235ZM21.359 3.72525C21.4666 3.64072 21.5995 3.59478 21.7364 3.59478C21.8732 3.59478 22.0061 3.64072 22.1138 3.72525L38.776 17.2714H4.6824L21.359 3.72525ZM36.1092 35.2419H32.5151V20.8655H36.1092V35.2419ZM28.921 35.2419H23.5298V20.8655H28.921V35.2419ZM19.9357 35.2419H14.5446V20.8655H19.9357V35.2419ZM36.7094 38.836C38.3627 38.836 39.7033 40.1766 39.7033 41.8298V42.4301H3.76231V41.8298C3.76231 40.1766 5.10291 38.836 6.75619 38.836H36.7094ZM10.9505 35.2419H7.35641V20.8655H10.9505V35.2419Z" fill="#30405E"/>
</svg>
