<svg width="39" height="46" viewBox="0 0 39 46" fill="none" xmlns="http://www.w3.org/2000/svg">
<path d="M19.2695 1.2041H19.2705C21.8869 1.2041 24.3487 1.31359 26.6562 1.53125C28.9249 1.74526 30.8622 2.16842 32.4844 2.7832C34.0588 3.37995 35.243 4.22588 36.0918 5.2959C36.8797 6.28931 37.3368 7.69424 37.3369 9.63477V32.5186C37.3369 34.5787 36.643 36.2677 35.251 37.6611C33.8597 39.0536 32.1724 39.7464 30.1113 39.7451L27.2002 39.7432L32.0195 44.5625H29.4043L24.5869 39.7451H13.9541L9.13672 44.5625H6.52148L11.3389 39.7451H8.43066C6.37062 39.7451 4.68242 39.0521 3.28906 37.6602C1.89632 36.2688 1.2027 34.5809 1.2041 32.5195V9.63477C1.20419 7.71861 1.69819 6.33019 2.56445 5.33789C3.51792 4.24584 4.79395 3.38824 6.43652 2.78613C8.12742 2.16634 10.0817 1.74306 12.3105 1.5293C14.5815 1.31151 16.9013 1.20252 19.2695 1.2041ZM3.61328 32.5186C3.61328 33.8529 4.06155 35.0321 4.98926 35.96C5.91712 36.8878 7.09622 37.3369 8.43066 37.3369H30.1104C31.4447 37.3369 32.623 36.8877 33.5508 35.96C34.4787 35.0321 34.9277 33.8531 34.9277 32.5186V22.8838H3.61328V32.5186ZM10.8398 27.7012C11.5927 27.7012 12.1401 27.9352 12.5771 28.3721C13.0142 28.8092 13.248 29.3572 13.248 30.1104C13.248 30.8634 13.0142 31.4106 12.5771 31.8477C12.1401 32.2847 11.5928 32.5185 10.8398 32.5186C10.0867 32.5186 9.53866 32.2848 9.10156 31.8477C8.66469 31.4107 8.43071 30.8632 8.43066 30.1104C8.43066 29.3572 8.66447 28.8092 9.10156 28.3721C9.53866 27.935 10.0867 27.7012 10.8398 27.7012ZM27.7012 27.7012C28.4543 27.7012 29.0024 27.935 29.4395 28.3721C29.8765 28.8092 30.1104 29.3573 30.1104 30.1104C30.1103 30.8632 29.8763 31.4107 29.4395 31.8477C29.0024 32.2847 28.4543 32.5186 27.7012 32.5186C26.9482 32.5185 26.4009 32.2847 25.9639 31.8477C25.5268 31.4106 25.293 30.8634 25.293 30.1104C25.293 29.3572 25.5268 28.8092 25.9639 28.3721C26.4009 27.9352 26.9483 27.7012 27.7012 27.7012ZM3.61328 20.4746H18.0664V10.8398H3.61328V20.4746ZM20.4746 20.4746H34.9277V10.8398H20.4746V20.4746ZM19.2705 3.61328C14.9991 3.61328 11.7597 3.8621 9.6377 4.4043C7.65336 4.91134 6.07714 5.51427 5.13184 6.2998L2.56836 8.43066H35.5488L33.7832 6.42969C33.3208 5.90564 32.6714 5.50474 31.9443 5.18359C31.2053 4.8572 30.307 4.5786 29.2695 4.33789C27.4054 3.90538 24.599 3.67667 20.9072 3.625L19.2705 3.61328Z" fill="#192233" stroke="#192233" stroke-width="2.40881"/>
</svg>
